ply
format ascii 1.0
element vertex 545
property float x
property float y
property float z
property uchar red
property uchar green
property uchar blue
end_header
0 0 6 255 120 50
0 0 7 255 120 50
0 0 8 0 175 0
0 0 9 0 175 0
0 0 10 150 240 80
0 0 11 255 0 255
0 0 12 255 0 255
0 0 13 255 0 255
0 0 14 255 0 255
0 0 15 255 0 255
0 0 16 255 0 255
0 0 17 255 0 255
0 0 18 75 0 75
0 0 19 75 0 75
0 0 20 0 175 0
0 0 21 255 200 0
0 0 22 255 200 0
0 0 23 255 200 0
0 0 31 0 175 0
0 1 6 255 120 50
0 1 7 0 175 0
0 1 8 0 175 0
0 1 9 0 175 0
0 1 10 0 175 0
0 1 11 0 175 0
0 1 20 0 175 0
0 1 21 0 175 0
0 1 22 255 200 0
0 1 23 255 200 0
0 1 25 255 200 0
0 1 28 255 200 0
0 1 29 255 200 0
0 1 30 0 175 0
0 1 31 0 175 0
0 2 10 0 175 0
0 2 11 0 175 0
0 2 12 0 175 0
0 2 21 255 200 0
0 2 22 255 200 0
0 2 23 255 200 0
0 2 28 255 200 0
0 2 29 255 200 0
0 2 30 0 175 0
0 2 31 0 175 0
0 3 22 255 200 0
1 0 7 255 120 50
1 0 8 255 120 50
1 0 9 0 175 0
1 0 10 0 175 0
1 0 11 150 240 80
1 0 12 255 0 255
1 0 13 255 0 255
1 0 14 255 0 255
1 0 15 255 0 255
1 0 16 255 0 255
1 0 17 255 0 255
1 0 18 75 0 75
1 0 19 75 0 75
1 0 20 0 175 0
1 0 21 0 175 0
1 0 22 0 175 0
1 0 23 0 175 0
1 0 24 255 200 0
1 0 25 255 200 0
1 0 30 0 175 0
1 0 31 0 175 0
1 1 7 255 120 50
1 1 8 255 120 50
1 1 9 0 175 0
1 1 10 0 175 0
1 1 11 0 175 0
1 1 12 0 175 0
1 1 20 0 175 0
1 1 21 0 175 0
1 1 22 0 175 0
1 1 23 255 200 0
1 1 24 255 200 0
1 1 25 255 200 0
1 1 26 255 200 0
1 1 27 255 200 0
1 1 28 255 200 0
1 1 30 0 175 0
1 1 31 0 175 0
1 2 11 0 175 0
1 2 12 0 175 0
1 2 21 0 175 0
1 2 22 0 175 0
1 2 23 255 200 0
1 2 24 255 200 0
1 2 27 255 200 0
1 2 28 255 200 0
1 2 30 0 175 0
1 2 31 0 175 0
1 3 23 255 200 0
1 3 27 255 200 0
2 0 9 255 120 50
2 0 10 0 175 0
2 0 11 0 175 0
2 0 12 0 175 0
2 0 13 255 0 255
2 0 14 255 0 255
2 0 15 255 0 255
2 0 16 255 0 255
2 0 17 255 0 255
2 0 18 255 0 255
2 0 19 75 0 75
2 0 20 75 0 75
2 0 21 0 175 0
2 0 22 0 175 0
2 0 23 0 175 0
2 0 24 0 175 0
2 0 25 255 200 0
2 0 26 255 200 0
2 0 27 255 200 0
2 0 29 255 200 0
2 0 30 0 175 0
2 0 31 0 175 0
2 1 9 255 120 50
2 1 10 0 175 0
2 1 11 0 175 0
2 1 12 0 175 0
2 1 13 0 175 0
2 1 14 0 175 0
2 1 20 0 175 0
2 1 21 0 175 0
2 1 22 0 175 0
2 1 23 0 175 0
2 1 24 255 200 0
2 1 25 255 200 0
2 1 26 255 200 0
2 1 27 255 200 0
2 1 28 255 200 0
2 1 29 0 175 0
2 1 30 0 175 0
2 1 31 0 175 0
2 2 12 0 175 0
2 2 13 0 175 0
2 2 14 0 175 0
2 2 24 255 200 0
2 2 25 255 200 0
2 2 27 255 200 0
2 2 28 255 200 0
2 3 27 255 200 0
3 0 10 255 120 50
3 0 11 0 175 0
3 0 12 0 175 0
3 0 13 0 175 0
3 0 14 255 0 255
3 0 15 255 0 255
3 0 16 255 0 255
3 0 17 255 0 255
3 0 18 255 0 255
3 0 19 255 0 255
3 0 20 75 0 75
3 0 21 75 0 75
3 0 22 0 175 0
3 0 23 0 175 0
3 0 24 0 175 0
3 0 25 0 175 0
3 0 26 255 200 0
3 0 27 255 200 0
3 0 28 255 200 0
3 0 29 0 175 0
3 0 30 0 175 0
3 0 31 255 200 0
3 1 10 255 120 50
3 1 11 0 175 0
3 1 12 0 175 0
3 1 13 0 175 0
3 1 14 0 175 0
3 1 15 0 175 0
3 1 21 0 175 0
3 1 22 0 175 0
3 1 23 0 175 0
3 1 24 0 175 0
3 1 25 0 175 0
3 1 26 255 200 0
3 1 27 0 175 0
3 1 28 0 175 0
3 1 29 0 175 0
3 1 30 0 175 0
3 1 31 255 200 0
3 2 13 0 175 0
3 2 14 0 175 0
3 2 15 0 175 0
3 2 23 0 175 0
3 2 24 0 175 0
3 2 25 0 175 0
3 2 26 255 200 0
3 2 27 255 200 0
3 2 28 0 175 0
3 2 29 0 175 0
3 3 26 255 200 0
3 3 27 255 200 0
4 0 11 255 120 50
4 0 12 0 175 0
4 0 13 0 175 0
4 0 14 0 175 0
4 0 15 150 240 80
4 0 16 255 0 255
4 0 17 255 0 255
4 0 18 255 0 255
4 0 19 255 0 255
4 0 20 255 0 255
4 0 21 100 150 245
4 0 22 75 0 75
4 0 23 75 0 75
4 0 24 0 175 0
4 0 25 0 175 0
4 0 26 0 175 0
4 0 27 75 0 75
4 0 28 0 175 0
4 0 29 0 175 0
4 0 31 255 200 0
4 1 11 255 120 50
4 1 12 0 175 0
4 1 13 0 175 0
4 1 14 0 175 0
4 1 15 0 175 0
4 1 23 0 175 0
4 1 24 0 175 0
4 1 25 0 175 0
4 1 26 0 175 0
4 1 27 0 175 0
4 1 28 0 175 0
4 1 29 0 175 0
4 1 31 255 200 0
4 2 13 0 175 0
4 2 14 0 175 0
4 2 15 0 175 0
4 2 23 0 175 0
4 2 24 0 175 0
4 2 26 0 175 0
4 2 27 0 175 0
4 2 28 0 175 0
4 2 29 0 175 0
4 2 31 255 200 0
5 0 12 255 120 50
5 0 13 0 175 0
5 0 14 0 175 0
5 0 15 0 175 0
5 0 16 0 175 0
5 0 17 255 0 255
5 0 18 255 0 255
5 0 19 255 0 255
5 0 20 255 0 255
5 0 21 255 0 255
5 0 22 100 150 245
5 0 23 100 150 245
5 0 24 75 0 75
5 0 25 75 0 75
5 0 26 75 0 75
5 0 27 0 175 0
5 0 28 0 175 0
5 0 29 150 240 80
5 0 30 150 240 80
5 0 31 255 200 0
5 1 12 255 120 50
5 1 13 0 175 0
5 1 14 0 175 0
5 1 15 0 175 0
5 1 16 0 175 0
5 1 17 0 175 0
5 1 22 100 150 245
5 1 23 100 150 245
5 1 27 0 175 0
5 1 28 0 175 0
5 1 29 0 175 0
5 1 30 255 200 0
5 1 31 255 200 0
5 2 16 0 175 0
5 2 27 0 175 0
5 2 28 0 175 0
5 2 30 255 200 0
5 2 31 255 200 0
5 3 14 0 175 0
5 3 30 255 200 0
5 3 31 255 200 0
6 0 13 255 120 50
6 0 14 255 120 50
6 0 15 0 175 0
6 0 16 0 175 0
6 0 17 0 175 0
6 0 18 255 0 255
6 0 19 255 0 255
6 0 20 255 0 255
6 0 21 255 0 255
6 0 22 255 0 255
6 0 23 100 150 245
6 0 24 75 0 75
6 0 25 75 0 75
6 0 26 75 0 75
6 0 27 0 175 0
6 0 28 255 120 50
6 0 29 0 175 0
6 0 30 0 175 0
6 0 31 150 240 80
6 1 13 255 120 50
6 1 14 0 175 0
6 1 15 0 175 0
6 1 16 0 175 0
6 1 17 0 175 0
6 1 18 0 175 0
6 1 19 0 175 0
6 1 22 100 150 245
6 1 23 100 150 245
6 1 27 0 175 0
6 1 28 0 175 0
6 1 29 0 175 0
6 1 30 0 175 0
6 1 31 0 175 0
6 2 15 0 175 0
6 2 16 0 175 0
6 2 17 0 175 0
6 2 18 0 175 0
7 0 14 255 120 50
7 0 15 255 120 50
7 0 16 0 175 0
7 0 17 0 175 0
7 0 18 0 175 0
7 0 19 150 240 80
7 0 20 255 0 255
7 0 21 255 0 255
7 0 22 255 0 255
7 0 23 255 0 255
7 0 24 255 0 255
7 0 25 255 0 255
7 0 26 75 0 75
7 0 27 75 0 75
7 0 28 255 120 50
7 0 29 255 120 50
7 0 30 0 175 0
7 0 31 150 240 80
7 1 14 255 120 50
7 1 15 255 120 50
7 1 16 0 175 0
7 1 17 0 175 0
7 1 18 0 175 0
7 1 19 0 175 0
7 1 29 0 175 0
7 1 30 0 175 0
7 2 15 255 120 50
7 2 16 0 175 0
7 2 17 0 175 0
7 2 18 0 175 0
7 2 19 0 175 0
8 0 16 255 120 50
8 0 17 0 175 0
8 0 18 0 175 0
8 0 19 0 175 0
8 0 20 0 175 0
8 0 21 255 0 255
8 0 22 255 0 255
8 0 23 255 0 255
8 0 24 255 0 255
8 0 25 255 0 255
8 0 26 255 0 255
8 0 27 75 0 75
8 0 28 75 0 75
8 0 29 75 0 75
8 0 30 255 120 50
8 0 31 255 120 50
8 1 16 255 120 50
8 1 17 0 175 0
8 1 18 0 175 0
8 1 19 0 175 0
8 1 20 0 175 0
8 2 17 0 175 0
8 2 18 0 175 0
8 2 19 0 175 0
9 0 17 255 120 50
9 0 18 0 175 0
9 0 19 0 175 0
9 0 20 0 175 0
9 0 21 150 240 80
9 0 22 255 0 255
9 0 23 255 0 255
9 0 24 255 0 255
9 0 25 255 0 255
9 0 26 255 0 255
9 0 27 255 0 255
9 0 28 75 0 75
9 0 29 75 0 75
9 0 30 75 0 75
9 0 31 75 0 75
9 1 17 255 120 50
9 1 18 255 120 50
9 1 19 0 175 0
9 1 20 0 175 0
9 1 21 0 175 0
9 1 22 0 175 0
9 1 29 100 150 245
9 1 30 100 150 245
9 2 17 255 120 50
9 2 18 0 175 0
9 2 19 0 175 0
9 2 20 0 175 0
10 0 18 255 120 50
10 0 19 0 175 0
10 0 20 0 175 0
10 0 21 0 175 0
10 0 22 0 175 0
10 0 23 150 240 80
10 0 24 255 0 255
10 0 25 255 0 255
10 0 26 255 0 255
10 0 27 255 0 255
10 0 28 255 0 255
10 0 29 100 150 245
10 0 30 100 150 245
10 0 31 75 0 75
10 1 18 255 120 50
10 1 19 0 175 0
10 1 20 0 175 0
10 1 21 0 175 0
10 1 22 0 175 0
10 1 23 0 175 0
10 1 29 100 150 245
10 1 30 100 150 245
10 1 31 100 150 245
10 2 19 0 175 0
10 2 21 0 175 0
10 2 22 0 175 0
11 0 20 0 175 0
11 0 21 0 175 0
11 0 22 0 175 0
11 0 23 0 175 0
11 0 24 150 240 80
11 0 25 255 0 255
11 0 26 255 0 255
11 0 27 255 0 255
11 0 28 255 0 255
11 0 29 255 0 255
11 0 30 100 150 245
11 0 31 100 150 245
11 1 20 0 175 0
11 1 21 0 175 0
11 1 22 0 175 0
11 1 23 0 175 0
11 1 24 255 240 150
11 1 29 100 150 245
11 1 30 100 150 245
11 1 31 100 150 245
11 2 21 0 175 0
11 2 22 0 175 0
11 2 23 0 175 0
11 2 24 255 240 150
12 0 21 0 175 0
12 0 22 0 175 0
12 0 23 0 175 0
12 0 24 0 175 0
12 0 25 150 240 80
12 0 26 150 240 80
12 0 27 255 0 255
12 0 28 255 0 255
12 0 29 255 0 255
12 0 30 255 0 255
12 0 31 100 150 245
12 1 21 0 175 0
12 1 22 0 175 0
12 1 23 0 175 0
12 1 24 0 175 0
12 1 25 0 175 0
12 1 26 0 175 0
12 1 30 100 150 245
12 1 31 100 150 245
12 2 23 0 175 0
12 2 24 0 175 0
12 2 25 0 175 0
13 0 22 0 175 0
13 0 23 0 175 0
13 0 24 0 175 0
13 0 25 0 175 0
13 0 26 0 175 0
13 0 27 150 240 80
13 0 28 255 0 255
13 0 29 255 0 255
13 0 30 255 0 255
13 0 31 255 0 255
13 1 22 0 175 0
13 1 23 0 175 0
13 1 24 0 175 0
13 1 25 0 175 0
13 1 26 0 175 0
13 1 27 0 175 0
13 2 25 0 175 0
13 2 26 0 175 0
14 0 24 0 175 0
14 0 25 0 175 0
14 0 26 0 175 0
14 0 27 0 175 0
14 0 28 150 240 80
14 0 29 255 0 255
14 0 30 255 0 255
14 0 31 255 0 255
14 1 24 0 175 0
14 1 25 0 175 0
14 1 26 0 175 0
14 1 27 0 175 0
14 1 28 0 175 0
14 2 25 0 175 0
14 2 26 0 175 0
14 2 27 0 175 0
15 0 25 0 175 0
15 0 26 0 175 0
15 0 27 0 175 0
15 0 28 0 175 0
15 0 29 0 175 0
15 0 30 150 240 80
15 0 31 255 0 255
15 1 25 0 175 0
15 1 26 0 175 0
15 1 27 0 175 0
15 1 28 0 175 0
15 1 29 0 175 0
15 1 30 0 175 0
15 2 27 0 175 0
15 2 28 0 175 0
15 2 29 0 175 0
16 0 27 0 175 0
16 0 28 0 175 0
16 0 29 0 175 0
16 0 30 0 175 0
16 0 31 0 175 0
16 1 27 0 175 0
16 1 28 0 175 0
16 1 29 0 175 0
16 1 30 0 175 0
16 1 31 0 175 0
16 2 28 0 175 0
16 2 29 0 175 0
16 2 30 0 175 0
16 2 31 0 175 0
17 0 28 0 175 0
17 0 29 0 175 0
17 0 30 0 175 0
17 0 31 0 175 0
17 1 28 0 175 0
17 1 29 0 175 0
17 1 30 0 175 0
17 1 31 0 175 0
17 2 30 0 175 0
17 2 31 0 175 0
18 0 31 0 175 0
18 1 31 0 175 0
