ply
format ascii 1.0
element vertex 2707
property float x
property float y
property float z
property uchar red
property uchar green
property uchar blue
end_header
0 0 13 255 120 50
0 0 14 255 120 50
0 0 15 0 175 0
0 0 16 0 175 0
0 0 17 0 175 0
0 0 18 0 175 0
0 0 19 150 240 80
0 0 20 150 240 80
0 0 21 255 0 255
0 0 22 255 0 255
0 0 23 255 0 255
0 0 24 255 0 255
0 0 25 255 0 255
0 0 26 255 0 255
0 0 27 255 0 255
0 0 28 255 0 255
0 0 29 255 0 255
0 0 30 255 0 255
0 0 31 255 0 255
0 0 32 255 0 255
0 0 33 255 0 255
0 0 34 255 0 255
0 0 35 75 0 75
0 0 36 75 0 75
0 0 37 75 0 75
0 0 38 75 0 75
0 0 39 75 0 75
0 0 40 75 0 75
0 0 41 0 175 0
0 0 42 75 0 75
0 0 43 255 200 0
0 0 44 255 200 0
0 0 63 0 175 0
0 1 13 255 120 50
0 1 14 255 120 50
0 1 15 0 175 0
0 1 16 0 175 0
0 1 17 0 175 0
0 1 18 0 175 0
0 1 19 0 175 0
0 1 40 0 175 0
0 1 41 0 175 0
0 1 43 255 200 0
0 1 44 255 200 0
0 1 45 255 200 0
0 1 47 255 200 0
0 1 63 0 175 0
0 2 13 255 120 50
0 2 14 255 120 50
0 2 15 0 175 0
0 2 16 0 175 0
0 2 17 0 175 0
0 2 18 0 175 0
0 2 19 0 175 0
0 2 20 0 175 0
0 2 22 0 175 0
0 2 43 255 200 0
0 2 44 255 200 0
0 2 45 255 200 0
0 2 46 255 200 0
0 2 47 255 200 0
0 2 57 255 200 0
0 2 58 255 200 0
0 2 59 255 200 0
0 2 60 0 175 0
0 2 61 0 175 0
0 2 62 0 175 0
0 2 63 0 175 0
0 3 13 255 120 50
0 3 14 0 175 0
0 3 15 0 175 0
0 3 16 0 175 0
0 3 17 0 175 0
0 3 18 0 175 0
0 3 19 0 175 0
0 3 21 0 175 0
0 3 22 0 175 0
0 3 43 255 200 0
0 3 44 255 200 0
0 3 45 255 200 0
0 3 47 255 200 0
0 3 58 255 200 0
0 3 59 255 200 0
0 3 60 0 175 0
0 3 61 0 175 0
0 3 62 0 175 0
0 3 63 0 175 0
0 4 21 0 175 0
0 4 22 0 175 0
0 4 43 255 200 0
0 4 44 255 200 0
0 4 45 255 200 0
0 4 58 255 200 0
0 4 59 255 200 0
0 4 60 0 175 0
0 4 61 0 175 0
0 4 62 0 175 0
0 4 63 0 175 0
0 5 21 0 175 0
0 5 22 0 175 0
0 5 43 255 200 0
0 5 44 255 200 0
0 6 44 255 200 0
1 0 14 255 120 50
1 0 15 255 120 50
1 0 16 0 175 0
1 0 17 0 175 0
1 0 18 0 175 0
1 0 19 0 175 0
1 0 20 150 240 80
1 0 21 150 240 80
1 0 22 255 0 255
1 0 23 255 0 255
1 0 24 255 0 255
1 0 25 255 0 255
1 0 26 255 0 255
1 0 27 255 0 255
1 0 28 255 0 255
1 0 29 255 0 255
1 0 30 255 0 255
1 0 31 255 0 255
1 0 32 255 0 255
1 0 33 255 0 255
1 0 34 255 0 255
1 0 35 75 0 75
1 0 36 75 0 75
1 0 37 75 0 75
1 0 38 75 0 75
1 0 39 75 0 75
1 0 40 0 175 0
1 0 41 0 175 0
1 0 42 255 200 0
1 0 43 255 200 0
1 0 44 255 200 0
1 0 46 255 200 0
1 0 62 255 200 0
1 0 63 0 175 0
1 1 14 255 120 50
1 1 15 255 120 50
1 1 16 0 175 0
1 1 17 0 175 0
1 1 18 0 175 0
1 1 19 0 175 0
1 1 20 0 175 0
1 1 39 0 175 0
1 1 40 0 175 0
1 1 41 0 175 0
1 1 42 255 200 0
1 1 43 0 175 0
1 1 44 255 200 0
1 1 45 255 200 0
1 1 46 255 200 0
1 1 62 0 175 0
1 1 63 0 175 0
1 2 14 255 120 50
1 2 15 255 120 50
1 2 16 0 175 0
1 2 17 0 175 0
1 2 18 0 175 0
1 2 19 0 175 0
1 2 20 0 175 0
1 2 21 0 175 0
1 2 22 0 175 0
1 2 40 0 175 0
1 2 41 0 175 0
1 2 42 0 175 0
1 2 43 0 175 0
1 2 44 255 200 0
1 2 45 255 200 0
1 2 46 255 200 0
1 2 51 255 200 0
1 2 57 255 200 0
1 2 58 255 200 0
1 2 61 0 175 0
1 2 62 0 175 0
1 2 63 0 175 0
1 3 14 255 120 50
1 3 15 0 175 0
1 3 16 0 175 0
1 3 17 0 175 0
1 3 18 0 175 0
1 3 19 0 175 0
1 3 20 0 175 0
1 3 22 0 175 0
1 3 23 0 175 0
1 3 42 0 175 0
1 3 43 0 175 0
1 3 44 255 200 0
1 3 45 255 200 0
1 3 46 255 200 0
1 3 51 255 200 0
1 3 56 255 200 0
1 3 57 255 200 0
1 3 58 255 200 0
1 3 60 0 175 0
1 3 61 0 175 0
1 3 62 0 175 0
1 3 63 0 175 0
1 4 22 0 175 0
1 4 23 0 175 0
1 4 24 0 175 0
1 4 44 255 200 0
1 4 45 255 200 0
1 4 46 255 200 0
1 4 57 255 200 0
1 4 58 255 200 0
1 4 60 0 175 0
1 4 61 0 175 0
1 4 62 0 175 0
1 4 63 0 175 0
1 5 22 0 175 0
1 5 23 0 175 0
1 5 44 255 200 0
1 5 45 255 200 0
1 6 45 255 200 0
2 0 15 255 120 50
2 0 16 255 120 50
2 0 17 0 175 0
2 0 18 0 175 0
2 0 19 0 175 0
2 0 20 0 175 0
2 0 21 150 240 80
2 0 22 150 240 80
2 0 23 150 240 80
2 0 24 255 0 255
2 0 25 255 0 255
2 0 26 255 0 255
2 0 27 255 0 255
2 0 28 255 0 255
2 0 29 255 0 255
2 0 30 255 0 255
2 0 31 255 0 255
2 0 32 255 0 255
2 0 33 255 0 255
2 0 34 255 0 255
2 0 35 255 0 255
2 0 36 75 0 75
2 0 37 75 0 75
2 0 38 75 0 75
2 0 39 75 0 75
2 0 40 0 175 0
2 0 41 75 0 75
2 0 42 255 200 0
2 0 46 0 175 0
2 0 47 0 175 0
2 0 61 255 200 0
2 0 62 0 175 0
2 0 63 0 175 0
2 1 15 255 120 50
2 1 16 255 120 50
2 1 17 0 175 0
2 1 18 0 175 0
2 1 19 0 175 0
2 1 20 0 175 0
2 1 21 0 175 0
2 1 22 0 175 0
2 1 39 0 175 0
2 1 40 0 175 0
2 1 41 0 175 0
2 1 42 0 175 0
2 1 43 0 175 0
2 1 44 0 175 0
2 1 45 255 200 0
2 1 46 0 175 0
2 1 47 255 200 0
2 1 49 255 200 0
2 1 50 255 200 0
2 1 51 255 200 0
2 1 62 0 175 0
2 1 63 0 175 0
2 2 15 255 120 50
2 2 16 255 120 50
2 2 17 0 175 0
2 2 18 0 175 0
2 2 19 0 175 0
2 2 20 0 175 0
2 2 21 0 175 0
2 2 22 0 175 0
2 2 23 0 175 0
2 2 40 0 175 0
2 2 41 0 175 0
2 2 42 0 175 0
2 2 43 0 175 0
2 2 44 0 175 0
2 2 45 0 175 0
2 2 46 255 200 0
2 2 47 255 200 0
2 2 50 255 200 0
2 2 53 255 200 0
2 2 56 255 200 0
2 2 57 255 200 0
2 2 61 0 175 0
2 2 62 0 175 0
2 2 63 0 175 0
2 3 16 255 120 50
2 3 17 0 175 0
2 3 18 0 175 0
2 3 19 0 175 0
2 3 20 0 175 0
2 3 21 0 175 0
2 3 22 0 175 0
2 3 23 0 175 0
2 3 24 0 175 0
2 3 42 0 175 0
2 3 43 0 175 0
2 3 44 0 175 0
2 3 46 255 200 0
2 3 47 255 200 0
2 3 49 255 200 0
2 3 50 255 200 0
2 3 52 255 200 0
2 3 54 255 200 0
2 3 55 255 200 0
2 3 56 255 200 0
2 3 57 255 200 0
2 3 61 0 175 0
2 3 62 0 175 0
2 3 63 0 175 0
2 4 22 0 175 0
2 4 23 0 175 0
2 4 24 0 175 0
2 4 25 0 175 0
2 4 43 0 175 0
2 4 44 0 175 0
2 4 46 255 200 0
2 4 47 255 200 0
2 4 56 255 200 0
2 4 57 255 200 0
2 4 61 0 175 0
2 4 62 0 175 0
2 4 63 0 175 0
2 5 22 0 175 0
2 5 23 0 175 0
2 5 24 0 175 0
2 5 46 255 200 0
2 5 47 255 200 0
2 5 56 255 200 0
2 5 57 255 200 0
2 6 46 255 200 0
2 6 47 255 200 0
3 0 16 255 120 50
3 0 17 255 120 50
3 0 18 0 175 0
3 0 19 0 175 0
3 0 20 0 175 0
3 0 21 0 175 0
3 0 22 150 240 80
3 0 23 150 240 80
3 0 24 150 240 80
3 0 25 255 0 255
3 0 26 255 0 255
3 0 27 255 0 255
3 0 28 255 0 255
3 0 29 255 0 255
3 0 30 255 0 255
3 0 31 255 0 255
3 0 32 255 0 255
3 0 33 255 0 255
3 0 34 255 0 255
3 0 35 255 0 255
3 0 36 75 0 75
3 0 37 75 0 75
3 0 38 75 0 75
3 0 39 75 0 75
3 0 40 75 0 75
3 0 41 0 175 0
3 0 42 0 175 0
3 0 43 0 175 0
3 0 60 255 200 0
3 0 61 0 175 0
3 0 62 0 175 0
3 1 16 255 120 50
3 1 17 255 120 50
3 1 18 0 175 0
3 1 19 0 175 0
3 1 20 0 175 0
3 1 21 0 175 0
3 1 22 0 175 0
3 1 23 0 175 0
3 1 41 0 175 0
3 1 42 0 175 0
3 1 43 0 175 0
3 1 44 0 175 0
3 1 45 0 175 0
3 1 46 0 175 0
3 1 47 0 175 0
3 1 48 255 200 0
3 1 49 255 200 0
3 1 50 255 200 0
3 1 51 255 200 0
3 1 62 0 175 0
3 2 16 255 120 50
3 2 17 255 120 50
3 2 18 0 175 0
3 2 19 0 175 0
3 2 20 0 175 0
3 2 21 0 175 0
3 2 22 0 175 0
3 2 23 0 175 0
3 2 24 0 175 0
3 2 25 0 175 0
3 2 41 0 175 0
3 2 42 0 175 0
3 2 43 0 175 0
3 2 44 0 175 0
3 2 45 0 175 0
3 2 46 0 175 0
3 2 47 255 200 0
3 2 48 255 200 0
3 2 49 255 200 0
3 2 50 255 200 0
3 2 52 255 200 0
3 2 55 255 200 0
3 2 56 255 200 0
3 2 61 0 175 0
3 2 62 0 175 0
3 3 16 255 120 50
3 3 17 255 120 50
3 3 18 0 175 0
3 3 19 0 175 0
3 3 20 0 175 0
3 3 21 0 175 0
3 3 22 0 175 0
3 3 23 0 175 0
3 3 24 0 175 0
3 3 25 0 175 0
3 3 41 0 175 0
3 3 42 0 175 0
3 3 43 0 175 0
3 3 44 0 175 0
3 3 45 0 175 0
3 3 46 0 175 0
3 3 47 255 200 0
3 3 48 255 200 0
3 3 49 255 200 0
3 3 50 255 200 0
3 3 52 255 200 0
3 3 53 255 200 0
3 3 55 255 200 0
3 3 56 255 200 0
3 4 23 0 175 0
3 4 24 0 175 0
3 4 25 0 175 0
3 4 44 0 175 0
3 4 45 0 175 0
3 4 47 255 200 0
3 4 48 255 200 0
3 4 55 255 200 0
3 4 56 255 200 0
3 5 24 0 175 0
3 5 47 255 200 0
3 5 48 255 200 0
3 5 55 255 200 0
3 5 56 255 200 0
3 6 54 255 200 0
3 6 55 255 200 0
4 0 18 255 120 50
4 0 19 0 175 0
4 0 20 0 175 0
4 0 21 0 175 0
4 0 22 0 175 0
4 0 23 0 175 0
4 0 24 150 240 80
4 0 25 150 240 80
4 0 26 255 0 255
4 0 27 255 0 255
4 0 28 255 0 255
4 0 29 255 0 255
4 0 30 255 0 255
4 0 31 255 0 255
4 0 32 255 0 255
4 0 33 255 0 255
4 0 34 255 0 255
4 0 35 255 0 255
4 0 36 255 0 255
4 0 37 75 0 75
4 0 38 75 0 75
4 0 39 75 0 75
4 0 40 75 0 75
4 0 41 75 0 75
4 0 42 0 175 0
4 0 43 0 175 0
4 0 44 0 175 0
4 0 53 255 200 0
4 0 59 0 175 0
4 0 60 0 175 0
4 0 61 0 175 0
4 0 62 0 175 0
4 1 18 255 120 50
4 1 19 0 175 0
4 1 20 0 175 0
4 1 21 0 175 0
4 1 22 0 175 0
4 1 23 0 175 0
4 1 24 255 240 150
4 1 41 0 175 0
4 1 42 0 175 0
4 1 43 0 175 0
4 1 44 0 175 0
4 1 45 0 175 0
4 1 46 0 175 0
4 1 47 0 175 0
4 1 48 0 175 0
4 1 49 255 200 0
4 1 50 255 200 0
4 1 61 0 175 0
4 1 62 0 175 0
4 2 18 255 120 50
4 2 19 0 175 0
4 2 20 0 175 0
4 2 21 0 175 0
4 2 22 0 175 0
4 2 23 0 175 0
4 2 24 0 175 0
4 2 41 0 175 0
4 2 42 0 175 0
4 2 43 0 175 0
4 2 44 0 175 0
4 2 45 0 175 0
4 2 46 0 175 0
4 2 47 0 175 0
4 2 48 0 175 0
4 2 49 255 200 0
4 2 50 255 200 0
4 2 52 255 200 0
4 2 55 255 200 0
4 2 56 255 200 0
4 2 57 255 200 0
4 2 60 0 175 0
4 2 61 0 175 0
4 2 62 0 175 0
4 3 19 0 175 0
4 3 20 0 175 0
4 3 21 0 175 0
4 3 22 0 175 0
4 3 23 0 175 0
4 3 24 0 175 0
4 3 41 0 175 0
4 3 42 0 175 0
4 3 43 0 175 0
4 3 44 0 175 0
4 3 45 0 175 0
4 3 46 0 175 0
4 3 47 0 175 0
4 3 48 255 200 0
4 3 49 255 200 0
4 3 50 255 200 0
4 3 51 255 200 0
4 3 52 255 200 0
4 3 54 255 200 0
4 3 55 255 200 0
4 3 56 255 200 0
4 4 24 0 175 0
4 4 27 0 175 0
4 4 48 255 200 0
4 4 49 255 200 0
4 4 50 255 200 0
4 4 55 255 200 0
4 4 56 255 200 0
4 5 27 0 175 0
4 5 49 255 200 0
4 5 55 255 200 0
4 5 56 255 200 0
4 6 55 255 200 0
5 0 19 255 120 50
5 0 20 0 175 0
5 0 21 0 175 0
5 0 22 0 175 0
5 0 23 0 175 0
5 0 24 150 240 80
5 0 25 150 240 80
5 0 26 150 240 80
5 0 27 255 0 255
5 0 28 255 0 255
5 0 29 255 0 255
5 0 30 255 0 255
5 0 31 255 0 255
5 0 32 255 0 255
5 0 33 255 0 255
5 0 34 255 0 255
5 0 35 255 0 255
5 0 36 255 0 255
5 0 37 255 0 255
5 0 38 75 0 75
5 0 39 75 0 75
5 0 40 75 0 75
5 0 41 75 0 75
5 0 42 75 0 75
5 0 43 0 175 0
5 0 44 0 175 0
5 0 45 0 175 0
5 0 50 255 200 0
5 0 51 255 200 0
5 0 53 255 200 0
5 0 54 255 200 0
5 0 55 255 200 0
5 0 59 255 200 0
5 0 60 0 175 0
5 0 61 0 175 0
5 1 19 255 120 50
5 1 20 0 175 0
5 1 21 0 175 0
5 1 22 0 175 0
5 1 23 0 175 0
5 1 24 0 175 0
5 1 25 0 175 0
5 1 26 0 175 0
5 1 42 0 175 0
5 1 43 0 175 0
5 1 44 0 175 0
5 1 45 0 175 0
5 1 46 0 175 0
5 1 47 0 175 0
5 1 48 0 175 0
5 1 49 0 175 0
5 1 50 255 200 0
5 1 51 255 200 0
5 1 54 255 200 0
5 1 55 255 200 0
5 1 59 0 175 0
5 1 60 0 175 0
5 1 61 0 175 0
5 2 19 255 120 50
5 2 20 0 175 0
5 2 21 0 175 0
5 2 22 0 175 0
5 2 23 0 175 0
5 2 24 0 175 0
5 2 25 0 175 0
5 2 26 0 175 0
5 2 42 0 175 0
5 2 43 0 175 0
5 2 44 0 175 0
5 2 45 0 175 0
5 2 46 0 175 0
5 2 47 0 175 0
5 2 48 0 175 0
5 2 49 0 175 0
5 2 50 255 200 0
5 2 51 255 200 0
5 2 54 255 200 0
5 2 55 255 200 0
5 2 59 0 175 0
5 2 60 0 175 0
5 2 61 0 175 0
5 3 19 255 120 50
5 3 20 0 175 0
5 3 21 0 175 0
5 3 22 0 175 0
5 3 24 0 175 0
5 3 25 0 175 0
5 3 26 0 175 0
5 3 27 0 175 0
5 3 28 0 175 0
5 3 42 0 175 0
5 3 43 0 175 0
5 3 44 0 175 0
5 3 45 0 175 0
5 3 46 0 175 0
5 3 47 0 175 0
5 3 48 0 175 0
5 3 50 255 200 0
5 3 51 255 200 0
5 3 52 255 200 0
5 3 53 255 200 0
5 3 54 255 200 0
5 3 55 255 200 0
5 4 27 0 175 0
5 4 28 0 175 0
5 4 48 0 175 0
5 4 49 255 200 0
5 4 50 255 200 0
5 4 51 255 200 0
5 5 26 0 175 0
5 5 27 0 175 0
5 5 28 0 175 0
5 5 54 255 200 0
5 5 55 255 200 0
5 6 54 255 200 0
6 0 20 255 120 50
6 0 21 0 175 0
6 0 22 0 175 0
6 0 23 0 175 0
6 0 24 0 175 0
6 0 25 0 175 0
6 0 26 0 175 0
6 0 27 150 240 80
6 0 28 255 0 255
6 0 29 255 0 255
6 0 30 255 0 255
6 0 31 255 0 255
6 0 32 255 0 255
6 0 33 255 0 255
6 0 34 255 0 255
6 0 35 255 0 255
6 0 36 255 0 255
6 0 37 255 0 255
6 0 38 255 0 255
6 0 39 255 0 255
6 0 40 75 0 75
6 0 41 75 0 75
6 0 42 75 0 75
6 0 43 75 0 75
6 0 44 75 0 75
6 0 45 0 175 0
6 0 46 0 175 0
6 0 47 0 175 0
6 0 48 0 175 0
6 0 49 0 175 0
6 0 50 255 200 0
6 0 51 255 200 0
6 0 52 255 200 0
6 0 53 255 200 0
6 0 54 255 200 0
6 0 55 255 200 0
6 0 56 255 200 0
6 0 57 255 200 0
6 0 58 255 200 0
6 0 59 255 200 0
6 0 60 0 175 0
6 1 20 255 120 50
6 1 21 0 175 0
6 1 22 0 175 0
6 1 23 0 175 0
6 1 24 0 175 0
6 1 25 0 175 0
6 1 26 0 175 0
6 1 27 0 175 0
6 1 44 0 175 0
6 1 45 0 175 0
6 1 46 0 175 0
6 1 47 0 175 0
6 1 48 0 175 0
6 1 49 0 175 0
6 1 50 0 175 0
6 1 51 255 200 0
6 1 52 255 200 0
6 1 53 255 200 0
6 1 54 255 200 0
6 1 55 255 200 0
6 1 56 255 200 0
6 1 57 255 200 0
6 1 58 255 200 0
6 1 59 0 175 0
6 1 60 0 175 0
6 1 61 0 175 0
6 2 20 255 120 50
6 2 21 0 175 0
6 2 22 0 175 0
6 2 23 0 175 0
6 2 24 0 175 0
6 2 25 0 175 0
6 2 26 0 175 0
6 2 27 0 175 0
6 2 29 0 175 0
6 2 43 0 175 0
6 2 44 0 175 0
6 2 45 0 175 0
6 2 46 0 175 0
6 2 47 0 175 0
6 2 48 0 175 0
6 2 49 0 175 0
6 2 50 0 175 0
6 2 51 255 200 0
6 2 52 255 200 0
6 2 53 255 200 0
6 2 54 0 175 0
6 2 55 0 175 0
6 2 56 0 175 0
6 2 57 255 200 0
6 2 59 0 175 0
6 2 60 0 175 0
6 2 61 0 175 0
6 3 20 255 120 50
6 3 21 0 175 0
6 3 22 0 175 0
6 3 23 0 175 0
6 3 24 0 175 0
6 3 25 0 175 0
6 3 26 0 175 0
6 3 27 0 175 0
6 3 28 0 175 0
6 3 29 0 175 0
6 3 44 0 175 0
6 3 45 0 175 0
6 3 46 0 175 0
6 3 47 0 175 0
6 3 48 0 175 0
6 3 49 0 175 0
6 3 50 0 175 0
6 3 51 255 200 0
6 3 52 255 200 0
6 3 53 255 200 0
6 3 54 255 200 0
6 3 55 0 175 0
6 3 57 0 175 0
6 4 27 0 175 0
6 4 28 0 175 0
6 4 29 0 175 0
6 4 47 0 175 0
6 4 48 0 175 0
6 4 49 255 200 0
6 4 53 255 200 0
6 4 54 255 200 0
6 5 27 0 175 0
6 5 28 0 175 0
6 5 29 0 175 0
6 5 30 0 175 0
6 5 47 0 175 0
6 5 48 0 175 0
6 5 53 255 200 0
6 5 54 255 200 0
6 6 53 255 200 0
6 6 54 255 200 0
7 0 21 255 120 50
7 0 22 0 175 0
7 0 23 0 175 0
7 0 24 0 175 0
7 0 25 0 175 0
7 0 26 0 175 0
7 0 27 150 240 80
7 0 28 150 240 80
7 0 29 255 0 255
7 0 30 255 0 255
7 0 31 255 0 255
7 0 32 255 0 255
7 0 33 255 0 255
7 0 34 255 0 255
7 0 35 255 0 255
7 0 36 255 0 255
7 0 37 255 0 255
7 0 38 255 0 255
7 0 39 255 0 255
7 0 40 255 0 255
7 0 41 75 0 75
7 0 42 75 0 75
7 0 43 75 0 75
7 0 44 75 0 75
7 0 45 75 0 75
7 0 46 0 175 0
7 0 47 0 175 0
7 0 48 0 175 0
7 0 49 0 175 0
7 0 50 0 175 0
7 0 51 75 0 75
7 0 52 0 175 0
7 0 53 255 200 0
7 0 54 75 0 75
7 0 56 0 175 0
7 0 57 255 200 0
7 0 58 255 200 0
7 0 59 0 175 0
7 0 60 0 175 0
7 0 63 255 200 0
7 1 21 255 120 50
7 1 22 255 120 50
7 1 23 0 175 0
7 1 24 0 175 0
7 1 25 0 175 0
7 1 26 0 175 0
7 1 27 0 175 0
7 1 28 0 175 0
7 1 45 0 175 0
7 1 46 0 175 0
7 1 47 0 175 0
7 1 48 0 175 0
7 1 49 0 175 0
7 1 50 0 175 0
7 1 51 0 175 0
7 1 52 0 175 0
7 1 53 255 200 0
7 1 56 0 175 0
7 1 57 255 200 0
7 1 58 0 175 0
7 1 59 0 175 0
7 1 60 0 175 0
7 1 63 255 200 0
7 2 21 255 120 50
7 2 22 0 175 0
7 2 23 0 175 0
7 2 24 0 175 0
7 2 25 0 175 0
7 2 26 0 175 0
7 2 27 0 175 0
7 2 28 0 175 0
7 2 29 0 175 0
7 2 45 0 175 0
7 2 46 0 175 0
7 2 47 0 175 0
7 2 48 0 175 0
7 2 49 0 175 0
7 2 50 0 175 0
7 2 51 0 175 0
7 2 52 0 175 0
7 2 53 255 200 0
7 2 55 0 175 0
7 2 56 0 175 0
7 2 57 0 175 0
7 2 58 0 175 0
7 2 59 0 175 0
7 2 60 0 175 0
7 2 63 255 200 0
7 3 21 255 120 50
7 3 22 255 120 50
7 3 23 0 175 0
7 3 24 0 175 0
7 3 25 0 175 0
7 3 26 0 175 0
7 3 27 0 175 0
7 3 28 0 175 0
7 3 29 0 175 0
7 3 30 0 175 0
7 3 46 0 175 0
7 3 47 0 175 0
7 3 48 0 175 0
7 3 49 0 175 0
7 3 50 0 175 0
7 3 51 0 175 0
7 3 52 0 175 0
7 3 53 255 200 0
7 3 55 0 175 0
7 3 56 0 175 0
7 3 57 0 175 0
7 3 58 0 175 0
7 3 63 255 200 0
7 4 26 0 175 0
7 4 27 0 175 0
7 4 28 0 175 0
7 4 29 0 175 0
7 4 30 0 175 0
7 4 46 0 175 0
7 4 47 0 175 0
7 4 48 0 175 0
7 4 49 0 175 0
7 4 51 0 175 0
7 4 52 0 175 0
7 4 53 255 200 0
7 4 58 0 175 0
7 5 27 0 175 0
7 5 28 0 175 0
7 5 29 0 175 0
7 5 30 0 175 0
7 5 47 0 175 0
7 5 48 0 175 0
7 5 51 0 175 0
7 5 52 255 200 0
7 5 53 255 200 0
7 5 57 0 175 0
7 5 58 0 175 0
7 6 52 255 200 0
7 6 53 255 200 0
8 0 23 255 120 50
8 0 24 0 175 0
8 0 25 0 175 0
8 0 26 0 175 0
8 0 27 0 175 0
8 0 28 150 240 80
8 0 29 150 240 80
8 0 30 150 240 80
8 0 31 255 0 255
8 0 32 255 0 255
8 0 33 255 0 255
8 0 34 255 0 255
8 0 35 255 0 255
8 0 36 255 0 255
8 0 37 255 0 255
8 0 38 255 0 255
8 0 39 255 0 255
8 0 40 255 0 255
8 0 41 255 0 255
8 0 42 75 0 75
8 0 43 75 0 75
8 0 44 75 0 75
8 0 45 75 0 75
8 0 46 75 0 75
8 0 47 0 175 0
8 0 48 0 175 0
8 0 49 0 175 0
8 0 50 0 175 0
8 0 51 75 0 75
8 0 52 0 175 0
8 0 53 75 0 75
8 0 54 75 0 75
8 0 55 0 175 0
8 0 56 0 175 0
8 0 57 0 175 0
8 0 58 0 175 0
8 0 59 0 175 0
8 0 63 255 200 0
8 1 22 255 120 50
8 1 23 255 120 50
8 1 24 0 175 0
8 1 25 0 175 0
8 1 26 0 175 0
8 1 27 0 175 0
8 1 28 0 175 0
8 1 43 100 150 245
8 1 44 100 150 245
8 1 46 0 175 0
8 1 47 0 175 0
8 1 48 0 175 0
8 1 49 0 175 0
8 1 50 0 175 0
8 1 51 0 175 0
8 1 52 0 175 0
8 1 53 0 175 0
8 1 55 0 175 0
8 1 56 0 175 0
8 1 57 0 175 0
8 1 58 0 175 0
8 1 59 0 175 0
8 1 63 255 200 0
8 2 22 255 120 50
8 2 23 0 175 0
8 2 24 0 175 0
8 2 25 0 175 0
8 2 26 0 175 0
8 2 27 0 175 0
8 2 28 0 175 0
8 2 29 0 175 0
8 2 30 0 175 0
8 2 46 0 175 0
8 2 47 0 175 0
8 2 48 0 175 0
8 2 49 0 175 0
8 2 50 0 175 0
8 2 51 0 175 0
8 2 52 0 175 0
8 2 53 0 175 0
8 2 55 0 175 0
8 2 56 0 175 0
8 2 57 0 175 0
8 2 58 0 175 0
8 2 59 0 175 0
8 2 63 255 200 0
8 3 23 255 120 50
8 3 24 0 175 0
8 3 25 0 175 0
8 3 26 0 175 0
8 3 27 0 175 0
8 3 28 0 175 0
8 3 29 0 175 0
8 3 30 0 175 0
8 3 47 0 175 0
8 3 48 0 175 0
8 3 49 0 175 0
8 3 51 0 175 0
8 3 52 0 175 0
8 3 53 0 175 0
8 3 55 0 175 0
8 3 56 0 175 0
8 3 57 0 175 0
8 3 58 0 175 0
8 3 59 0 175 0
8 3 63 255 200 0
8 4 28 0 175 0
8 4 29 0 175 0
8 4 30 0 175 0
8 4 47 0 175 0
8 4 48 0 175 0
8 4 52 0 175 0
8 4 55 0 175 0
8 4 57 0 175 0
8 4 58 0 175 0
8 5 27 0 175 0
8 5 28 0 175 0
8 5 29 0 175 0
8 5 30 0 175 0
8 5 52 0 175 0
8 5 57 0 175 0
8 5 58 0 175 0
9 0 24 255 120 50
9 0 25 0 175 0
9 0 26 0 175 0
9 0 27 0 175 0
9 0 28 0 175 0
9 0 29 0 175 0
9 0 30 150 240 80
9 0 31 150 240 80
9 0 32 255 0 255
9 0 33 255 0 255
9 0 34 255 0 255
9 0 35 255 0 255
9 0 36 255 0 255
9 0 37 255 0 255
9 0 38 255 0 255
9 0 39 255 0 255
9 0 40 255 0 255
9 0 41 255 0 255
9 0 42 255 0 255
9 0 43 100 150 245
9 0 44 75 0 75
9 0 45 75 0 75
9 0 46 75 0 75
9 0 47 75 0 75
9 0 48 75 0 75
9 0 49 75 0 75
9 0 50 75 0 75
9 0 51 75 0 75
9 0 52 0 175 0
9 0 53 75 0 75
9 0 54 75 0 75
9 0 55 75 0 75
9 0 56 0 175 0
9 0 57 0 175 0
9 0 62 255 200 0
9 0 63 255 200 0
9 1 24 255 120 50
9 1 25 0 175 0
9 1 26 0 175 0
9 1 27 0 175 0
9 1 28 0 175 0
9 1 29 0 175 0
9 1 30 0 175 0
9 1 43 100 150 245
9 1 44 100 150 245
9 1 45 100 150 245
9 1 47 100 150 245
9 1 48 0 175 0
9 1 49 0 175 0
9 1 50 0 175 0
9 1 51 0 175 0
9 1 52 0 175 0
9 1 55 0 175 0
9 1 56 0 175 0
9 1 57 0 175 0
9 1 58 0 175 0
9 1 62 255 200 0
9 1 63 255 200 0
9 2 23 255 120 50
9 2 24 255 120 50
9 2 25 0 175 0
9 2 26 0 175 0
9 2 27 0 175 0
9 2 28 0 175 0
9 2 29 0 175 0
9 2 30 0 175 0
9 2 47 0 175 0
9 2 48 0 175 0
9 2 49 0 175 0
9 2 55 0 175 0
9 2 56 0 175 0
9 2 57 0 175 0
9 2 58 0 175 0
9 2 59 0 175 0
9 2 62 255 200 0
9 2 63 255 200 0
9 3 24 255 120 50
9 3 25 0 175 0
9 3 26 0 175 0
9 3 27 0 175 0
9 3 28 0 175 0
9 3 29 0 175 0
9 3 30 0 175 0
9 3 55 0 175 0
9 3 56 0 175 0
9 3 57 0 175 0
9 3 58 0 175 0
9 3 59 0 175 0
9 3 62 255 200 0
9 3 63 255 200 0
9 4 29 0 175 0
9 4 30 0 175 0
9 4 55 0 175 0
9 4 56 0 175 0
9 4 57 0 175 0
9 4 58 0 175 0
9 4 62 255 200 0
9 5 28 0 175 0
9 5 29 0 175 0
9 5 30 0 175 0
9 5 55 0 175 0
9 5 56 0 175 0
9 5 57 0 175 0
10 0 25 255 120 50
10 0 26 255 120 50
10 0 27 0 175 0
10 0 28 0 175 0
10 0 29 0 175 0
10 0 30 0 175 0
10 0 31 150 240 80
10 0 32 150 240 80
10 0 33 255 0 255
10 0 34 255 0 255
10 0 35 255 0 255
10 0 36 255 0 255
10 0 37 255 0 255
10 0 38 255 0 255
10 0 39 255 0 255
10 0 40 255 0 255
10 0 41 255 0 255
10 0 42 255 0 255
10 0 43 100 150 245
10 0 44 255 0 255
10 0 45 75 0 75
10 0 46 75 0 75
10 0 47 75 0 75
10 0 48 75 0 75
10 0 49 75 0 75
10 0 50 75 0 75
10 0 51 75 0 75
10 0 52 75 0 75
10 0 53 75 0 75
10 0 54 75 0 75
10 0 55 0 175 0
10 0 56 0 175 0
10 0 61 255 200 0
10 0 62 255 200 0
10 0 63 255 200 0
10 1 25 255 120 50
10 1 26 0 175 0
10 1 27 0 175 0
10 1 28 0 175 0
10 1 29 0 175 0
10 1 30 0 175 0
10 1 31 0 175 0
10 1 32 0 175 0
10 1 33 0 175 0
10 1 43 100 150 245
10 1 44 100 150 245
10 1 45 100 150 245
10 1 46 100 150 245
10 1 55 0 175 0
10 1 56 0 175 0
10 1 57 0 175 0
10 1 58 0 175 0
10 1 61 255 200 0
10 1 62 255 200 0
10 1 63 255 200 0
10 2 25 255 120 50
10 2 26 0 175 0
10 2 27 0 175 0
10 2 28 0 175 0
10 2 29 0 175 0
10 2 30 0 175 0
10 2 31 0 175 0
10 2 32 0 175 0
10 2 45 100 150 245
10 2 46 100 150 245
10 2 55 0 175 0
10 2 56 0 175 0
10 2 57 0 175 0
10 2 58 0 175 0
10 2 61 255 200 0
10 2 62 255 200 0
10 2 63 255 200 0
10 3 25 255 120 50
10 3 26 255 120 50
10 3 27 0 175 0
10 3 28 0 175 0
10 3 29 0 175 0
10 3 30 0 175 0
10 3 31 0 175 0
10 3 32 0 175 0
10 3 55 0 175 0
10 3 56 0 175 0
10 3 57 0 175 0
10 3 58 0 175 0
10 3 61 255 200 0
10 3 62 255 200 0
10 3 63 255 200 0
10 4 32 0 175 0
10 4 55 0 175 0
10 4 56 0 175 0
10 4 57 0 175 0
10 4 61 255 200 0
10 4 62 255 200 0
10 5 32 0 175 0
10 5 56 0 175 0
10 5 57 0 175 0
10 5 61 255 200 0
10 5 62 255 200 0
10 6 28 0 175 0
10 6 61 255 200 0
10 6 62 255 200 0
11 0 26 255 120 50
11 0 27 255 120 50
11 0 28 0 175 0
11 0 29 0 175 0
11 0 30 0 175 0
11 0 31 0 175 0
11 0 32 150 240 80
11 0 33 150 240 80
11 0 34 150 240 80
11 0 35 255 0 255
11 0 36 255 0 255
11 0 37 255 0 255
11 0 38 255 0 255
11 0 39 255 0 255
11 0 40 255 0 255
11 0 41 255 0 255
11 0 42 255 0 255
11 0 43 255 0 255
11 0 44 100 150 245
11 0 45 255 0 255
11 0 46 75 0 75
11 0 47 75 0 75
11 0 48 75 0 75
11 0 49 75 0 75
11 0 50 75 0 75
11 0 51 75 0 75
11 0 52 75 0 75
11 0 53 75 0 75
11 0 54 0 175 0
11 0 55 0 175 0
11 0 56 0 175 0
11 0 59 150 240 80
11 0 60 150 240 80
11 0 61 150 240 80
11 0 62 255 200 0
11 0 63 255 200 0
11 1 26 255 120 50
11 1 27 255 120 50
11 1 28 0 175 0
11 1 29 0 175 0
11 1 30 0 175 0
11 1 31 0 175 0
11 1 32 0 175 0
11 1 33 0 175 0
11 1 34 0 175 0
11 1 43 100 150 245
11 1 44 100 150 245
11 1 45 100 150 245
11 1 46 100 150 245
11 1 47 100 150 245
11 1 48 100 150 245
11 1 54 0 175 0
11 1 55 0 175 0
11 1 56 0 175 0
11 1 62 255 200 0
11 1 63 255 200 0
11 2 26 255 120 50
11 2 27 0 175 0
11 2 28 0 175 0
11 2 29 0 175 0
11 2 30 0 175 0
11 2 31 0 175 0
11 2 32 0 175 0
11 2 33 0 175 0
11 2 34 0 175 0
11 2 45 100 150 245
11 2 46 100 150 245
11 2 47 100 150 245
11 2 55 0 175 0
11 2 56 0 175 0
11 2 57 0 175 0
11 2 62 255 200 0
11 2 63 255 200 0
11 3 28 0 175 0
11 3 29 0 175 0
11 3 30 0 175 0
11 3 31 0 175 0
11 3 32 0 175 0
11 3 33 0 175 0
11 3 34 0 175 0
11 3 56 0 175 0
11 3 62 255 200 0
11 3 63 255 200 0
11 4 32 0 175 0
11 4 33 0 175 0
11 4 62 255 200 0
11 4 63 255 200 0
11 5 32 0 175 0
11 5 33 0 175 0
11 5 62 255 200 0
11 5 63 255 200 0
11 6 62 255 200 0
12 0 27 255 120 50
12 0 28 255 120 50
12 0 29 0 175 0
12 0 30 0 175 0
12 0 31 0 175 0
12 0 32 0 175 0
12 0 33 0 175 0
12 0 34 150 240 80
12 0 35 150 240 80
12 0 36 255 0 255
12 0 37 255 0 255
12 0 38 255 0 255
12 0 39 255 0 255
12 0 40 255 0 255
12 0 41 255 0 255
12 0 42 255 0 255
12 0 43 255 0 255
12 0 44 255 0 255
12 0 45 100 150 245
12 0 46 100 150 245
12 0 47 100 150 245
12 0 48 75 0 75
12 0 49 75 0 75
12 0 50 75 0 75
12 0 51 75 0 75
12 0 52 75 0 75
12 0 53 75 0 75
12 0 54 0 175 0
12 0 55 255 120 50
12 0 56 0 175 0
12 0 59 0 175 0
12 0 60 0 175 0
12 0 61 150 240 80
12 0 62 150 240 80
12 0 63 255 200 0
12 1 27 255 120 50
12 1 28 255 120 50
12 1 29 0 175 0
12 1 30 0 175 0
12 1 31 0 175 0
12 1 32 0 175 0
12 1 33 0 175 0
12 1 34 0 175 0
12 1 35 0 175 0
12 1 44 100 150 245
12 1 45 100 150 245
12 1 46 100 150 245
12 1 47 100 150 245
12 1 48 100 150 245
12 1 54 0 175 0
12 1 55 0 175 0
12 1 56 0 175 0
12 1 59 0 175 0
12 1 60 0 175 0
12 1 61 0 175 0
12 2 27 255 120 50
12 2 28 255 120 50
12 2 29 0 175 0
12 2 30 0 175 0
12 2 31 0 175 0
12 2 32 0 175 0
12 2 33 0 175 0
12 2 34 0 175 0
12 2 35 0 175 0
12 2 45 100 150 245
12 2 46 100 150 245
12 2 47 100 150 245
12 2 54 0 175 0
12 2 55 0 175 0
12 2 56 0 175 0
12 2 59 0 175 0
12 3 28 0 175 0
12 3 29 0 175 0
12 3 30 0 175 0
12 3 31 0 175 0
12 3 32 0 175 0
12 3 33 0 175 0
12 3 34 0 175 0
12 3 35 0 175 0
12 3 54 0 175 0
12 3 55 0 175 0
12 4 32 0 175 0
12 4 33 0 175 0
12 4 34 0 175 0
12 4 35 0 175 0
12 4 36 0 175 0
12 5 31 0 175 0
12 5 32 0 175 0
12 5 33 0 175 0
12 5 34 0 175 0
13 0 28 255 120 50
13 0 29 255 120 50
13 0 30 0 175 0
13 0 31 0 175 0
13 0 32 0 175 0
13 0 33 0 175 0
13 0 34 0 175 0
13 0 35 150 240 80
13 0 36 150 240 80
13 0 37 255 0 255
13 0 38 255 0 255
13 0 39 255 0 255
13 0 40 255 0 255
13 0 41 255 0 255
13 0 42 255 0 255
13 0 43 255 0 255
13 0 44 255 0 255
13 0 45 255 0 255
13 0 46 100 150 245
13 0 47 100 150 245
13 0 48 255 0 255
13 0 49 75 0 75
13 0 50 75 0 75
13 0 51 75 0 75
13 0 52 75 0 75
13 0 53 75 0 75
13 0 54 75 0 75
13 0 55 255 120 50
13 0 56 255 120 50
13 0 57 255 120 50
13 0 59 0 175 0
13 0 60 0 175 0
13 0 61 0 175 0
13 0 62 150 240 80
13 0 63 150 240 80
13 1 28 255 120 50
13 1 29 255 120 50
13 1 30 0 175 0
13 1 31 0 175 0
13 1 32 0 175 0
13 1 33 0 175 0
13 1 34 0 175 0
13 1 35 0 175 0
13 1 36 0 175 0
13 1 46 100 150 245
13 1 47 100 150 245
13 1 48 100 150 245
13 1 54 0 175 0
13 1 55 0 175 0
13 1 56 255 120 50
13 1 57 255 120 50
13 1 58 0 175 0
13 1 59 0 175 0
13 1 60 0 175 0
13 1 61 0 175 0
13 1 62 0 175 0
13 2 28 255 120 50
13 2 29 255 120 50
13 2 30 0 175 0
13 2 31 0 175 0
13 2 32 0 175 0
13 2 33 0 175 0
13 2 34 0 175 0
13 2 35 0 175 0
13 2 36 0 175 0
13 2 37 0 175 0
13 2 54 0 175 0
13 2 55 0 175 0
13 2 56 0 175 0
13 2 58 0 175 0
13 2 59 0 175 0
13 2 60 0 175 0
13 2 61 0 175 0
13 2 62 0 175 0
13 3 29 255 120 50
13 3 30 255 120 50
13 3 31 0 175 0
13 3 32 0 175 0
13 3 33 0 175 0
13 3 34 0 175 0
13 3 35 0 175 0
13 3 36 0 175 0
13 3 37 0 175 0
13 3 38 0 175 0
13 3 55 0 175 0
13 3 59 0 175 0
13 3 60 0 175 0
13 4 33 0 175 0
13 4 35 0 175 0
13 4 36 0 175 0
13 4 37 0 175 0
13 5 32 0 175 0
13 5 33 0 175 0
13 5 34 0 175 0
13 5 35 0 175 0
14 0 30 255 120 50
14 0 31 255 120 50
14 0 32 0 175 0
14 0 33 0 175 0
14 0 34 0 175 0
14 0 35 0 175 0
14 0 36 150 240 80
14 0 37 150 240 80
14 0 38 150 240 80
14 0 39 255 0 255
14 0 40 255 0 255
14 0 41 255 0 255
14 0 42 255 0 255
14 0 43 255 0 255
14 0 44 255 0 255
14 0 45 255 0 255
14 0 46 255 0 255
14 0 47 255 0 255
14 0 48 255 0 255
14 0 49 255 0 255
14 0 50 255 0 255
14 0 51 75 0 75
14 0 52 75 0 75
14 0 53 75 0 75
14 0 54 75 0 75
14 0 55 75 0 75
14 0 56 75 0 75
14 0 57 255 120 50
14 0 58 255 120 50
14 0 61 0 175 0
14 0 62 150 240 80
14 0 63 150 240 80
14 1 29 255 120 50
14 1 30 255 120 50
14 1 31 255 120 50
14 1 32 0 175 0
14 1 33 0 175 0
14 1 34 0 175 0
14 1 35 0 175 0
14 1 36 0 175 0
14 1 37 0 175 0
14 1 56 255 120 50
14 1 57 255 120 50
14 1 58 0 175 0
14 1 59 0 175 0
14 1 60 0 175 0
14 1 61 0 175 0
14 1 62 0 175 0
14 2 29 255 120 50
14 2 30 255 120 50
14 2 31 255 120 50
14 2 32 0 175 0
14 2 33 0 175 0
14 2 34 0 175 0
14 2 35 0 175 0
14 2 36 0 175 0
14 2 37 0 175 0
14 2 38 0 175 0
14 2 58 0 175 0
14 2 59 0 175 0
14 2 60 0 175 0
14 3 30 255 120 50
14 3 32 0 175 0
14 3 33 0 175 0
14 3 34 0 175 0
14 3 35 0 175 0
14 3 36 0 175 0
14 3 37 0 175 0
14 3 38 0 175 0
14 3 39 0 175 0
14 3 59 0 175 0
14 3 60 0 175 0
14 4 35 0 175 0
14 4 36 0 175 0
14 4 37 0 175 0
14 4 38 0 175 0
14 5 30 255 120 50
14 5 32 0 175 0
14 5 33 0 175 0
14 5 34 0 175 0
14 5 35 0 175 0
14 5 36 0 175 0
14 5 37 0 175 0
15 0 31 255 120 50
15 0 32 255 120 50
15 0 33 0 175 0
15 0 34 0 175 0
15 0 35 0 175 0
15 0 36 0 175 0
15 0 37 150 240 80
15 0 38 150 240 80
15 0 39 150 240 80
15 0 40 255 0 255
15 0 41 255 0 255
15 0 42 255 0 255
15 0 43 255 0 255
15 0 44 255 0 255
15 0 45 255 0 255
15 0 46 255 0 255
15 0 47 255 0 255
15 0 48 255 0 255
15 0 49 255 0 255
15 0 50 255 0 255
15 0 51 255 0 255
15 0 52 75 0 75
15 0 53 75 0 75
15 0 54 75 0 75
15 0 55 75 0 75
15 0 56 75 0 75
15 0 57 75 0 75
15 0 58 255 120 50
15 0 59 255 120 50
15 0 60 255 120 50
15 0 63 0 175 0
15 1 31 255 120 50
15 1 32 255 120 50
15 1 33 0 175 0
15 1 34 0 175 0
15 1 35 0 175 0
15 1 36 0 175 0
15 1 37 0 175 0
15 1 38 0 175 0
15 1 39 0 175 0
15 1 40 0 175 0
15 1 57 255 120 50
15 1 58 255 120 50
15 1 59 255 120 50
15 1 60 255 120 50
15 2 30 255 120 50
15 2 31 255 120 50
15 2 32 255 120 50
15 2 33 0 175 0
15 2 34 0 175 0
15 2 35 0 175 0
15 2 36 0 175 0
15 2 37 0 175 0
15 2 38 0 175 0
15 2 39 0 175 0
15 3 34 0 175 0
15 3 35 0 175 0
15 3 36 0 175 0
15 3 37 0 175 0
15 3 38 0 175 0
15 3 39 0 175 0
15 4 33 0 175 0
15 4 34 0 175 0
15 4 35 0 175 0
15 4 36 0 175 0
15 4 37 0 175 0
15 4 38 0 175 0
15 5 32 0 175 0
15 5 34 0 175 0
15 5 35 0 175 0
15 5 36 0 175 0
15 5 37 0 175 0
15 5 38 0 175 0
16 0 32 255 120 50
16 0 33 255 120 50
16 0 34 0 175 0
16 0 35 0 175 0
16 0 36 0 175 0
16 0 37 0 175 0
16 0 38 0 175 0
16 0 39 150 240 80
16 0 40 150 240 80
16 0 41 255 0 255
16 0 42 255 0 255
16 0 43 255 0 255
16 0 44 255 0 255
16 0 45 255 0 255
16 0 46 255 0 255
16 0 47 255 0 255
16 0 48 255 0 255
16 0 49 255 0 255
16 0 50 255 0 255
16 0 51 255 0 255
16 0 52 255 0 255
16 0 53 75 0 75
16 0 54 75 0 75
16 0 55 75 0 75
16 0 56 75 0 75
16 0 57 75 0 75
16 0 58 75 0 75
16 0 59 75 0 75
16 0 60 255 120 50
16 0 61 255 120 50
16 0 63 0 175 0
16 1 32 255 120 50
16 1 33 255 120 50
16 1 34 0 175 0
16 1 35 0 175 0
16 1 36 0 175 0
16 1 37 0 175 0
16 1 38 0 175 0
16 1 39 0 175 0
16 1 40 0 175 0
16 1 41 150 240 80
16 1 59 255 120 50
16 1 60 255 120 50
16 1 61 255 120 50
16 2 32 255 120 50
16 2 33 255 120 50
16 2 34 0 175 0
16 2 35 0 175 0
16 2 36 0 175 0
16 2 37 0 175 0
16 2 38 0 175 0
16 2 39 0 175 0
16 2 40 0 175 0
16 3 34 0 175 0
16 3 35 0 175 0
16 3 36 0 175 0
16 3 37 0 175 0
16 3 38 0 175 0
16 3 39 0 175 0
16 3 40 0 175 0
16 4 35 0 175 0
16 4 36 0 175 0
16 4 37 0 175 0
16 4 38 0 175 0
16 4 39 0 175 0
16 5 35 0 175 0
16 5 36 0 175 0
16 5 37 0 175 0
16 5 38 0 175 0
17 0 33 255 120 50
17 0 34 255 120 50
17 0 35 255 120 50
17 0 36 0 175 0
17 0 37 0 175 0
17 0 38 0 175 0
17 0 39 0 175 0
17 0 40 0 175 0
17 0 41 150 240 80
17 0 42 255 0 255
17 0 43 255 0 255
17 0 44 255 0 255
17 0 45 255 0 255
17 0 46 255 0 255
17 0 47 255 0 255
17 0 48 255 0 255
17 0 49 255 0 255
17 0 50 255 0 255
17 0 51 255 0 255
17 0 52 255 0 255
17 0 53 255 0 255
17 0 54 75 0 75
17 0 55 75 0 75
17 0 56 75 0 75
17 0 57 75 0 75
17 0 58 75 0 75
17 0 59 75 0 75
17 0 60 75 0 75
17 0 61 255 120 50
17 0 62 255 120 50
17 1 33 255 120 50
17 1 34 255 120 50
17 1 35 0 175 0
17 1 36 0 175 0
17 1 37 0 175 0
17 1 38 0 175 0
17 1 39 0 175 0
17 1 40 0 175 0
17 1 41 0 175 0
17 1 61 255 120 50
17 1 62 255 120 50
17 2 33 255 120 50
17 2 34 255 120 50
17 2 35 0 175 0
17 2 36 0 175 0
17 2 37 0 175 0
17 2 38 0 175 0
17 2 39 0 175 0
17 2 40 0 175 0
17 2 41 0 175 0
17 3 34 255 120 50
17 3 35 255 120 50
17 3 36 0 175 0
17 3 38 0 175 0
17 3 39 0 175 0
17 3 40 0 175 0
17 4 35 0 175 0
17 4 36 0 175 0
17 4 37 0 175 0
17 4 38 0 175 0
17 4 39 0 175 0
17 5 35 0 175 0
17 5 36 0 175 0
17 5 37 0 175 0
17 5 39 0 175 0
18 0 35 255 120 50
18 0 36 0 175 0
18 0 37 0 175 0
18 0 38 0 175 0
18 0 39 0 175 0
18 0 40 0 175 0
18 0 41 0 175 0
18 0 42 150 240 80
18 0 43 150 240 80
18 0 44 255 0 255
18 0 45 255 0 255
18 0 46 255 0 255
18 0 47 255 0 255
18 0 48 255 0 255
18 0 49 255 0 255
18 0 50 255 0 255
18 0 51 255 0 255
18 0 52 255 0 255
18 0 53 255 0 255
18 0 54 255 0 255
18 0 55 255 0 255
18 0 56 75 0 75
18 0 57 75 0 75
18 0 58 75 0 75
18 0 59 75 0 75
18 0 60 75 0 75
18 0 61 75 0 75
18 0 62 75 0 75
18 0 63 255 120 50
18 1 34 255 120 50
18 1 35 255 120 50
18 1 36 255 120 50
18 1 37 0 175 0
18 1 38 0 175 0
18 1 39 0 175 0
18 1 40 0 175 0
18 1 41 0 175 0
18 1 42 0 175 0
18 1 62 255 120 50
18 1 63 255 120 50
18 2 35 255 120 50
18 2 36 255 120 50
18 2 37 0 175 0
18 2 38 0 175 0
18 2 39 0 175 0
18 2 40 0 175 0
18 2 41 0 175 0
18 2 42 0 175 0
18 3 35 255 120 50
18 3 36 255 120 50
18 3 39 0 175 0
18 3 40 0 175 0
18 3 41 0 175 0
18 4 38 0 175 0
18 4 39 0 175 0
18 4 40 0 175 0
18 5 35 255 120 50
18 5 36 0 175 0
18 5 40 0 175 0
19 0 36 255 120 50
19 0 37 255 120 50
19 0 38 0 175 0
19 0 39 0 175 0
19 0 40 0 175 0
19 0 41 0 175 0
19 0 42 150 240 80
19 0 43 150 240 80
19 0 44 150 240 80
19 0 45 255 0 255
19 0 46 255 0 255
19 0 47 255 0 255
19 0 48 255 0 255
19 0 49 255 0 255
19 0 50 255 0 255
19 0 51 255 0 255
19 0 52 255 0 255
19 0 53 255 0 255
19 0 54 255 0 255
19 0 55 255 0 255
19 0 56 255 0 255
19 0 57 75 0 75
19 0 58 75 0 75
19 0 59 100 150 245
19 0 60 75 0 75
19 0 61 75 0 75
19 0 62 75 0 75
19 0 63 75 0 75
19 1 36 255 120 50
19 1 37 255 120 50
19 1 38 0 175 0
19 1 39 0 175 0
19 1 40 0 175 0
19 1 41 0 175 0
19 1 42 0 175 0
19 1 58 100 150 245
19 1 59 100 150 245
19 1 60 100 150 245
19 2 36 255 120 50
19 2 37 255 120 50
19 2 38 0 175 0
19 2 39 0 175 0
19 2 40 0 175 0
19 2 41 0 175 0
19 2 42 0 175 0
19 2 43 0 175 0
19 2 44 0 175 0
19 2 59 100 150 245
19 2 60 100 150 245
19 3 39 0 175 0
19 3 40 0 175 0
19 3 41 0 175 0
19 3 42 0 175 0
19 3 43 0 175 0
19 4 37 255 120 50
19 4 39 0 175 0
19 4 40 0 175 0
19 5 39 0 175 0
20 0 37 255 120 50
20 0 38 255 120 50
20 0 39 0 175 0
20 0 40 0 175 0
20 0 41 0 175 0
20 0 42 0 175 0
20 0 43 150 240 80
20 0 44 150 240 80
20 0 45 150 240 80
20 0 46 255 0 255
20 0 47 255 0 255
20 0 48 255 0 255
20 0 49 255 0 255
20 0 50 255 0 255
20 0 51 255 0 255
20 0 52 255 0 255
20 0 53 255 0 255
20 0 54 255 0 255
20 0 55 255 0 255
20 0 56 255 0 255
20 0 57 255 0 255
20 0 58 100 150 245
20 0 59 75 0 75
20 0 60 75 0 75
20 0 61 75 0 75
20 0 62 75 0 75
20 0 63 75 0 75
20 1 37 255 120 50
20 1 38 255 120 50
20 1 39 0 175 0
20 1 40 0 175 0
20 1 41 0 175 0
20 1 42 0 175 0
20 1 43 0 175 0
20 1 44 0 175 0
20 1 45 0 175 0
20 1 58 100 150 245
20 1 59 100 150 245
20 1 60 100 150 245
20 1 61 100 150 245
20 1 62 100 150 245
20 2 37 255 120 50
20 2 38 255 120 50
20 2 39 0 175 0
20 2 40 0 175 0
20 2 41 0 175 0
20 2 42 0 175 0
20 2 43 0 175 0
20 2 44 0 175 0
20 2 45 0 175 0
20 2 59 100 150 245
20 2 60 100 150 245
20 2 61 100 150 245
20 2 62 100 150 245
20 3 38 255 120 50
20 3 40 0 175 0
20 3 41 0 175 0
20 3 42 0 175 0
20 3 43 0 175 0
20 3 44 0 175 0
20 3 60 100 150 245
20 3 61 100 150 245
20 4 39 0 175 0
20 4 42 0 175 0
21 0 39 0 175 0
21 0 40 0 175 0
21 0 41 0 175 0
21 0 42 0 175 0
21 0 43 0 175 0
21 0 44 0 175 0
21 0 45 0 175 0
21 0 46 150 240 80
21 0 47 150 240 80
21 0 48 255 0 255
21 0 49 255 0 255
21 0 50 255 0 255
21 0 51 255 0 255
21 0 52 255 0 255
21 0 53 255 0 255
21 0 54 255 0 255
21 0 55 255 0 255
21 0 56 255 0 255
21 0 57 255 0 255
21 0 58 100 150 245
21 0 59 100 150 245
21 0 60 255 0 255
21 0 61 75 0 75
21 0 62 75 0 75
21 0 63 75 0 75
21 1 39 0 175 0
21 1 40 0 175 0
21 1 41 0 175 0
21 1 42 0 175 0
21 1 43 0 175 0
21 1 44 0 175 0
21 1 45 0 175 0
21 1 46 0 175 0
21 1 47 0 175 0
21 1 58 100 150 245
21 1 59 100 150 245
21 1 60 100 150 245
21 1 61 100 150 245
21 1 62 100 150 245
21 1 63 100 150 245
21 2 39 0 175 0
21 2 40 0 175 0
21 2 41 0 175 0
21 2 42 0 175 0
21 2 43 0 175 0
21 2 44 0 175 0
21 2 45 0 175 0
21 2 46 0 175 0
21 2 58 100 150 245
21 2 59 100 150 245
21 2 60 100 150 245
21 2 61 100 150 245
21 2 62 100 150 245
21 2 63 100 150 245
21 3 42 0 175 0
21 3 43 0 175 0
21 3 44 0 175 0
21 3 45 0 175 0
21 3 59 100 150 245
21 3 60 100 150 245
21 3 61 100 150 245
21 4 45 0 175 0
22 0 40 0 175 0
22 0 41 0 175 0
22 0 42 0 175 0
22 0 43 0 175 0
22 0 44 0 175 0
22 0 45 0 175 0
22 0 46 0 175 0
22 0 47 150 240 80
22 0 48 150 240 80
22 0 49 255 0 255
22 0 50 255 0 255
22 0 51 255 0 255
22 0 52 255 0 255
22 0 53 255 0 255
22 0 54 255 0 255
22 0 55 255 0 255
22 0 56 255 0 255
22 0 57 255 0 255
22 0 58 255 0 255
22 0 59 100 150 245
22 0 60 100 150 245
22 0 61 255 0 255
22 0 62 75 0 75
22 0 63 75 0 75
22 1 40 0 175 0
22 1 41 0 175 0
22 1 42 0 175 0
22 1 43 0 175 0
22 1 44 0 175 0
22 1 45 0 175 0
22 1 46 0 175 0
22 1 47 0 175 0
22 1 58 100 150 245
22 1 59 100 150 245
22 1 60 100 150 245
22 1 63 100 150 245
22 2 40 0 175 0
22 2 41 0 175 0
22 2 42 0 175 0
22 2 43 0 175 0
22 2 44 0 175 0
22 2 45 0 175 0
22 2 46 0 175 0
22 2 47 0 175 0
22 2 58 100 150 245
22 2 59 100 150 245
22 2 60 100 150 245
22 2 63 100 150 245
22 3 42 0 175 0
22 3 43 0 175 0
22 3 44 0 175 0
22 3 45 0 175 0
22 3 46 0 175 0
22 3 47 0 175 0
22 3 59 100 150 245
22 3 60 100 150 245
22 3 61 100 150 245
22 4 43 0 175 0
22 4 44 0 175 0
22 4 45 0 175 0
22 4 46 0 175 0
22 4 47 0 175 0
22 5 45 0 175 0
22 5 47 0 175 0
23 0 41 0 175 0
23 0 42 0 175 0
23 0 43 0 175 0
23 0 44 0 175 0
23 0 45 0 175 0
23 0 46 0 175 0
23 0 47 0 175 0
23 0 48 150 240 80
23 0 49 150 240 80
23 0 50 150 240 80
23 0 51 255 0 255
23 0 52 255 0 255
23 0 53 255 0 255
23 0 54 255 0 255
23 0 55 255 0 255
23 0 56 255 0 255
23 0 57 255 0 255
23 0 58 255 0 255
23 0 59 255 0 255
23 0 60 255 0 255
23 0 61 100 150 245
23 0 62 100 150 245
23 0 63 100 150 245
23 1 41 0 175 0
23 1 42 0 175 0
23 1 43 0 175 0
23 1 44 0 175 0
23 1 45 0 175 0
23 1 46 0 175 0
23 1 47 0 175 0
23 1 48 255 240 150
23 1 59 100 150 245
23 1 60 100 150 245
23 1 61 100 150 245
23 1 62 100 150 245
23 1 63 100 150 245
23 2 41 0 175 0
23 2 42 0 175 0
23 2 43 0 175 0
23 2 44 0 175 0
23 2 45 0 175 0
23 2 46 0 175 0
23 2 47 0 175 0
23 2 48 255 240 150
23 2 60 100 150 245
23 2 61 100 150 245
23 2 62 100 150 245
23 2 63 100 150 245
23 3 42 0 175 0
23 3 44 0 175 0
23 3 45 0 175 0
23 3 46 0 175 0
23 3 47 0 175 0
23 3 48 255 240 150
23 3 60 100 150 245
23 3 61 100 150 245
23 3 62 100 150 245
23 3 63 100 150 245
23 4 44 0 175 0
23 4 45 0 175 0
23 4 46 0 175 0
23 4 47 0 175 0
23 4 48 255 240 150
23 5 45 0 175 0
23 5 48 255 240 150
24 0 43 0 175 0
24 0 44 0 175 0
24 0 45 0 175 0
24 0 46 0 175 0
24 0 47 0 175 0
24 0 48 0 175 0
24 0 49 150 240 80
24 0 50 150 240 80
24 0 51 150 240 80
24 0 52 255 0 255
24 0 53 255 0 255
24 0 54 255 0 255
24 0 55 255 0 255
24 0 56 255 0 255
24 0 57 255 0 255
24 0 58 255 0 255
24 0 59 255 0 255
24 0 60 255 0 255
24 0 61 255 0 255
24 0 62 100 150 245
24 0 63 100 150 245
24 1 43 0 175 0
24 1 44 0 175 0
24 1 45 0 175 0
24 1 46 0 175 0
24 1 47 0 175 0
24 1 48 0 175 0
24 1 49 0 175 0
24 1 50 0 175 0
24 1 61 100 150 245
24 1 62 100 150 245
24 1 63 100 150 245
24 2 43 0 175 0
24 2 44 0 175 0
24 2 45 0 175 0
24 2 46 0 175 0
24 2 47 0 175 0
24 2 48 0 175 0
24 2 49 0 175 0
24 2 61 100 150 245
24 2 62 100 150 245
24 2 63 100 150 245
24 3 43 0 175 0
24 3 44 0 175 0
24 3 45 0 175 0
24 3 46 0 175 0
24 3 47 0 175 0
24 3 48 0 175 0
24 3 49 0 175 0
24 3 62 100 150 245
24 3 63 100 150 245
24 4 46 0 175 0
24 4 47 0 175 0
24 4 49 0 175 0
24 5 49 0 175 0
25 0 44 0 175 0
25 0 45 0 175 0
25 0 46 0 175 0
25 0 47 0 175 0
25 0 48 0 175 0
25 0 49 0 175 0
25 0 50 0 175 0
25 0 51 150 240 80
25 0 52 150 240 80
25 0 53 150 240 80
25 0 54 255 0 255
25 0 55 255 0 255
25 0 56 255 0 255
25 0 57 255 0 255
25 0 58 255 0 255
25 0 59 255 0 255
25 0 60 255 0 255
25 0 61 255 0 255
25 0 62 255 0 255
25 0 63 255 0 255
25 1 44 0 175 0
25 1 45 0 175 0
25 1 46 0 175 0
25 1 47 0 175 0
25 1 48 0 175 0
25 1 49 0 175 0
25 1 50 0 175 0
25 1 62 100 150 245
25 1 63 100 150 245
25 2 44 0 175 0
25 2 45 0 175 0
25 2 46 0 175 0
25 2 47 0 175 0
25 2 48 0 175 0
25 2 49 0 175 0
25 2 50 0 175 0
25 2 51 0 175 0
25 3 45 0 175 0
25 3 46 0 175 0
25 3 47 0 175 0
25 3 48 0 175 0
25 3 49 0 175 0
25 3 51 0 175 0
25 3 52 0 175 0
25 4 49 0 175 0
25 4 50 0 175 0
25 4 51 0 175 0
26 0 45 0 175 0
26 0 46 0 175 0
26 0 47 0 175 0
26 0 48 0 175 0
26 0 49 0 175 0
26 0 50 0 175 0
26 0 51 150 240 80
26 0 52 150 240 80
26 0 53 150 240 80
26 0 54 150 240 80
26 0 55 255 0 255
26 0 56 255 0 255
26 0 57 255 0 255
26 0 58 255 0 255
26 0 59 255 0 255
26 0 60 255 0 255
26 0 61 255 0 255
26 0 62 255 0 255
26 0 63 255 0 255
26 1 45 0 175 0
26 1 46 0 175 0
26 1 47 0 175 0
26 1 48 0 175 0
26 1 49 0 175 0
26 1 50 0 175 0
26 1 51 0 175 0
26 1 52 0 175 0
26 1 53 0 175 0
26 1 54 150 240 80
26 1 63 100 150 245
26 2 45 0 175 0
26 2 46 0 175 0
26 2 47 0 175 0
26 2 48 0 175 0
26 2 49 0 175 0
26 2 50 0 175 0
26 2 51 0 175 0
26 2 52 0 175 0
26 2 53 0 175 0
26 3 48 0 175 0
26 3 49 0 175 0
26 3 50 0 175 0
26 3 51 0 175 0
26 3 52 0 175 0
26 3 53 0 175 0
26 4 50 0 175 0
26 4 51 0 175 0
26 4 52 0 175 0
26 5 51 0 175 0
26 5 52 0 175 0
27 0 47 0 175 0
27 0 48 0 175 0
27 0 49 0 175 0
27 0 50 0 175 0
27 0 51 0 175 0
27 0 52 0 175 0
27 0 53 0 175 0
27 0 54 150 240 80
27 0 55 150 240 80
27 0 56 255 0 255
27 0 57 255 0 255
27 0 58 255 0 255
27 0 59 255 0 255
27 0 60 255 0 255
27 0 61 255 0 255
27 0 62 255 0 255
27 0 63 255 0 255
27 1 47 0 175 0
27 1 48 0 175 0
27 1 49 0 175 0
27 1 50 0 175 0
27 1 51 0 175 0
27 1 52 0 175 0
27 1 53 0 175 0
27 1 54 0 175 0
27 1 55 0 175 0
27 2 47 0 175 0
27 2 48 0 175 0
27 2 49 0 175 0
27 2 50 0 175 0
27 2 51 0 175 0
27 2 52 0 175 0
27 2 53 0 175 0
27 2 54 0 175 0
27 2 55 0 175 0
27 3 50 0 175 0
27 3 51 0 175 0
27 3 52 0 175 0
27 3 53 0 175 0
27 3 54 0 175 0
27 4 51 0 175 0
27 4 52 0 175 0
27 4 53 0 175 0
27 5 52 0 175 0
27 5 53 0 175 0
28 0 48 0 175 0
28 0 49 0 175 0
28 0 50 0 175 0
28 0 51 0 175 0
28 0 52 0 175 0
28 0 53 0 175 0
28 0 54 0 175 0
28 0 55 0 175 0
28 0 56 150 240 80
28 0 57 150 240 80
28 0 58 255 0 255
28 0 59 255 0 255
28 0 60 255 0 255
28 0 61 255 0 255
28 0 62 255 0 255
28 0 63 255 0 255
28 1 48 0 175 0
28 1 49 0 175 0
28 1 50 0 175 0
28 1 51 0 175 0
28 1 52 0 175 0
28 1 53 0 175 0
28 1 54 0 175 0
28 1 55 0 175 0
28 1 56 0 175 0
28 2 48 0 175 0
28 2 49 0 175 0
28 2 50 0 175 0
28 2 51 0 175 0
28 2 52 0 175 0
28 2 53 0 175 0
28 2 54 0 175 0
28 2 55 0 175 0
28 2 56 0 175 0
28 3 49 0 175 0
28 3 50 0 175 0
28 3 51 0 175 0
28 3 52 0 175 0
28 3 53 0 175 0
28 3 54 0 175 0
28 3 55 0 175 0
28 4 51 0 175 0
28 4 52 0 175 0
28 4 53 0 175 0
28 4 54 0 175 0
28 5 51 0 175 0
28 5 52 0 175 0
28 5 53 0 175 0
29 0 50 0 175 0
29 0 51 0 175 0
29 0 52 0 175 0
29 0 53 0 175 0
29 0 54 0 175 0
29 0 55 0 175 0
29 0 56 0 175 0
29 0 57 150 240 80
29 0 58 150 240 80
29 0 59 255 0 255
29 0 60 255 0 255
29 0 61 255 0 255
29 0 62 255 0 255
29 0 63 255 0 255
29 1 50 0 175 0
29 1 51 0 175 0
29 1 52 0 175 0
29 1 53 0 175 0
29 1 54 0 175 0
29 1 55 0 175 0
29 1 56 0 175 0
29 1 57 0 175 0
29 2 50 0 175 0
29 2 51 0 175 0
29 2 52 0 175 0
29 2 53 0 175 0
29 2 54 0 175 0
29 2 55 0 175 0
29 2 56 0 175 0
29 2 57 0 175 0
29 3 51 0 175 0
29 3 52 0 175 0
29 3 53 0 175 0
29 3 54 0 175 0
29 3 55 0 175 0
29 4 52 0 175 0
29 4 53 0 175 0
30 0 51 0 175 0
30 0 52 0 175 0
30 0 53 0 175 0
30 0 54 0 175 0
30 0 55 0 175 0
30 0 56 0 175 0
30 0 57 0 175 0
30 0 58 0 175 0
30 0 59 150 240 80
30 0 60 150 240 80
30 0 61 255 0 255
30 0 62 255 0 255
30 0 63 255 0 255
30 1 51 0 175 0
30 1 52 0 175 0
30 1 53 0 175 0
30 1 54 0 175 0
30 1 55 0 175 0
30 1 56 0 175 0
30 1 57 0 175 0
30 1 58 0 175 0
30 1 59 0 175 0
30 2 51 0 175 0
30 2 52 0 175 0
30 2 53 0 175 0
30 2 54 0 175 0
30 2 55 0 175 0
30 2 56 0 175 0
30 2 57 0 175 0
30 2 58 0 175 0
30 2 59 0 175 0
30 3 53 0 175 0
30 3 54 0 175 0
30 3 55 0 175 0
30 3 56 0 175 0
30 3 57 0 175 0
30 3 58 0 175 0
30 4 57 0 175 0
31 0 53 0 175 0
31 0 54 0 175 0
31 0 55 0 175 0
31 0 56 0 175 0
31 0 57 0 175 0
31 0 58 0 175 0
31 0 59 0 175 0
31 0 60 150 240 80
31 0 61 150 240 80
31 0 62 255 0 255
31 0 63 255 0 255
31 1 53 0 175 0
31 1 54 0 175 0
31 1 55 0 175 0
31 1 56 0 175 0
31 1 57 0 175 0
31 1 58 0 175 0
31 1 59 0 175 0
31 1 60 0 175 0
31 1 61 150 240 80
31 2 52 0 175 0
31 2 53 0 175 0
31 2 54 0 175 0
31 2 55 0 175 0
31 2 56 0 175 0
31 2 57 0 175 0
31 2 58 0 175 0
31 2 59 0 175 0
31 2 60 0 175 0
31 2 61 0 175 0
31 3 56 0 175 0
31 3 57 0 175 0
31 3 58 0 175 0
31 3 59 0 175 0
31 3 60 0 175 0
31 4 55 0 175 0
31 4 56 0 175 0
31 4 57 0 175 0
31 4 58 0 175 0
31 4 59 0 175 0
32 0 54 0 175 0
32 0 55 0 175 0
32 0 56 0 175 0
32 0 57 0 175 0
32 0 58 0 175 0
32 0 59 0 175 0
32 0 60 0 175 0
32 0 61 150 240 80
32 0 62 150 240 80
32 0 63 150 240 80
32 1 54 0 175 0
32 1 55 0 175 0
32 1 56 0 175 0
32 1 57 0 175 0
32 1 58 0 175 0
32 1 59 0 175 0
32 1 60 0 175 0
32 1 61 0 175 0
32 1 62 0 175 0
32 2 54 0 175 0
32 2 55 0 175 0
32 2 56 0 175 0
32 2 57 0 175 0
32 2 58 0 175 0
32 2 59 0 175 0
32 2 60 0 175 0
32 2 61 0 175 0
32 2 62 0 175 0
32 3 57 0 175 0
32 3 58 0 175 0
32 3 59 0 175 0
32 3 60 0 175 0
32 3 61 0 175 0
32 3 62 0 175 0
32 4 57 0 175 0
32 4 58 0 175 0
32 4 59 0 175 0
32 4 60 0 175 0
32 4 61 0 175 0
33 0 56 0 175 0
33 0 57 0 175 0
33 0 58 0 175 0
33 0 59 0 175 0
33 0 60 0 175 0
33 0 61 0 175 0
33 0 62 0 175 0
33 0 63 0 175 0
33 1 55 0 175 0
33 1 56 0 175 0
33 1 57 0 175 0
33 1 58 0 175 0
33 1 59 0 175 0
33 1 60 0 175 0
33 1 61 0 175 0
33 1 62 0 175 0
33 1 63 0 175 0
33 2 55 0 175 0
33 2 56 0 175 0
33 2 57 0 175 0
33 2 58 0 175 0
33 2 59 0 175 0
33 2 60 0 175 0
33 2 61 0 175 0
33 2 62 0 175 0
33 2 63 0 175 0
33 3 58 0 175 0
33 3 59 0 175 0
33 3 60 0 175 0
33 3 61 0 175 0
33 3 62 0 175 0
33 3 63 0 175 0
33 4 58 0 175 0
33 4 60 0 175 0
33 4 61 0 175 0
33 4 62 0 175 0
34 0 57 0 175 0
34 0 58 0 175 0
34 0 59 0 175 0
34 0 60 0 175 0
34 0 61 0 175 0
34 0 62 0 175 0
34 0 63 0 175 0
34 1 57 0 175 0
34 1 58 0 175 0
34 1 59 0 175 0
34 1 60 0 175 0
34 1 61 0 175 0
34 1 62 0 175 0
34 1 63 0 175 0
34 2 57 0 175 0
34 2 58 0 175 0
34 2 59 0 175 0
34 2 60 0 175 0
34 2 61 0 175 0
34 2 62 0 175 0
34 2 63 0 175 0
34 3 58 0 175 0
34 3 59 0 175 0
34 3 60 0 175 0
34 3 61 0 175 0
34 3 62 0 175 0
34 3 63 0 175 0
34 4 61 0 175 0
34 4 62 0 175 0
35 0 59 0 175 0
35 0 60 0 175 0
35 0 61 0 175 0
35 0 62 0 175 0
35 0 63 0 175 0
35 1 59 0 175 0
35 1 60 0 175 0
35 1 61 0 175 0
35 1 62 0 175 0
35 1 63 0 175 0
35 2 58 0 175 0
35 2 59 0 175 0
35 2 60 0 175 0
35 2 61 0 175 0
35 2 62 0 175 0
35 2 63 0 175 0
35 3 59 0 175 0
35 3 60 0 175 0
35 3 61 0 175 0
35 3 62 0 175 0
35 3 63 0 175 0
36 0 62 0 175 0
36 0 63 0 175 0
36 1 62 0 175 0
36 1 63 0 175 0
36 2 62 0 175 0
36 2 63 0 175 0
37 0 63 0 175 0
37 1 63 0 175 0
